ffmpeg version 3.4.8-0ubuntu0.2 Copyright (c) 2000-2020 the FFmpeg developers
  built with gcc 7 (Ubuntu 7.5.0-3ubuntu1~18.04)
  configuration: --prefix=/usr --extra-version=0ubuntu0.2 --toolchain=hardened --libdir=/usr/lib/x86_64-linux-gnu --incdir=/usr/include/x86_64-linux-gnu --enable-gpl --disable-stripping --enable-avresample --enable-avisynth --enable-gnutls --enable-ladspa --enable-libass --enable-libbluray --enable-libbs2b --enable-libcaca --enable-libcdio --enable-libflite --enable-libfontconfig --enable-libfreetype --enable-libfribidi --enable-libgme --enable-libgsm --enable-libmp3lame --enable-libmysofa --enable-libopenjpeg --enable-libopenmpt --enable-libopus --enable-libpulse --enable-librubberband --enable-librsvg --enable-libshine --enable-libsnappy --enable-libsoxr --enable-libspeex --enable-libssh --enable-libtheora --enable-libtwolame --enable-libvorbis --enable-libvpx --enable-libwavpack --enable-libwebp --enable-libx265 --enable-libxml2 --enable-libxvid --enable-libzmq --enable-libzvbi --enable-omx --enable-openal --enable-opengl --enable-sdl2 --enable-libdc1394 --enable-libdrm --enable-libiec61883 --enable-chromaprint --enable-frei0r --enable-libopencv --enable-libx264 --enable-shared
  libavutil      55. 78.100 / 55. 78.100
  libavcodec     57.107.100 / 57.107.100
  libavformat    57. 83.100 / 57. 83.100
  libavdevice    57. 10.100 / 57. 10.100
  libavfilter     6.107.100 /  6.107.100
  libavresample   3.  7.  0 /  3.  7.  0
  libswscale      4.  8.100 /  4.  8.100
  libswresample   2.  9.100 /  2.  9.100
  libpostproc    54.  7.100 / 54.  7.100
[rawvideo @ 0x5645e4e57a20] Estimating duration from bitrate, this may be inaccurate
Input #0, rawvideo, from '../../SVC-Encoder-20220109T061506Z-001/SVC-Encoder/Dataset/RollerCoaster/ERP_8x8/tile_yuv/Tile_36_480x240.yuv':
  Duration: 00:00:10.00, start: 0.000000, bitrate: 41472 kb/s
    Stream #0:0: Video: rawvideo (I420 / 0x30323449), yuv420p, 480x240, 41472 kb/s, 30 tbr, 30 tbn, 30 tbc
Stream mapping:
  Stream #0:0 -> #0:0 (rawvideo (native) -> h264 (libx264))
Press [q] to stop, [?] for help
[libx264 @ 0x5645e4e64c60] using cpu capabilities: MMX2 SSE2Fast LZCNT SSSE3 SSE4.2 AVX
[libx264 @ 0x5645e4e64c60] profile High, level 2.1
Output #0, rawvideo, to 'RollerCoaster_Tile_36_480x240_x264_QP_20.h264':
  Metadata:
    encoder         : Lavf57.83.100
    Stream #0:0: Video: h264 (libx264), yuv420p, 480x240, q=-1--1, 30 fps, 30 tbn, 30 tbc
    Metadata:
      encoder         : Lavc57.107.100 libx264
    Side data:
      cpb: bitrate max/min/avg: 0/0/0 buffer size: 0 vbv_delay: -1
frame=  108 fps=0.0 q=26.0 PSNR=Y:nan U:nan V:nan *:nan size=     161kB time=00:00:02.16 bitrate= 608.3kbits/s speed=4.23x    frame=  203 fps=200 q=26.0 PSNR=Y:nan U:nan V:nan *:nan size=     256kB time=00:00:05.33 bitrate= 393.2kbits/s speed=5.26x    frame=  300 fps=189 q=26.0 LPSNR=Y:inf U:inf V:inf *:inf size=     689kB time=00:00:09.93 bitrate= 568.2kbits/s speed=6.27x    
video:689kB audio:0kB subtitle:0kB other streams:0kB global headers:0kB muxing overhead: 0.000000%
[libx264 @ 0x5645e4e64c60] frame I:2     Avg QP:19.14  size: 16144  PSNR Mean Y:47.98 U:49.59 V:52.21 Avg:48.71 Global:48.63
[libx264 @ 0x5645e4e64c60] frame P:76    Avg QP:19.81  size:  6277  PSNR Mean Y:45.03 U:48.37 V:51.01 Avg:46.07 Global:46.00
[libx264 @ 0x5645e4e64c60] frame B:222   Avg QP:25.40  size:   884  PSNR Mean Y:43.89 U:48.11 V:50.84 Avg:45.06 Global:44.99
[libx264 @ 0x5645e4e64c60] consecutive B-frames:  1.0%  0.7%  1.0% 97.3%
[libx264 @ 0x5645e4e64c60] mb I  I16..4: 25.4% 37.3% 37.2%
[libx264 @ 0x5645e4e64c60] mb P  I16..4:  3.8%  2.0%  0.7%  P16..4: 28.8% 24.7% 15.3%  0.0%  0.0%    skip:24.7%
[libx264 @ 0x5645e4e64c60] mb B  I16..4:  0.0%  0.0%  0.0%  B16..8: 36.7% 11.6%  1.6%  direct: 0.9%  skip:49.1%  L0:40.8% L1:41.2% BI:18.0%
[libx264 @ 0x5645e4e64c60] 8x8 transform intra:33.0% inter:61.9%
[libx264 @ 0x5645e4e64c60] coded y,uvDC,uvAC intra: 33.2% 59.1% 34.0% inter: 17.3% 16.5% 1.1%
[libx264 @ 0x5645e4e64c60] i16 v,h,dc,p: 21% 30% 28% 21%
[libx264 @ 0x5645e4e64c60] i8 v,h,dc,ddl,ddr,vr,hd,vl,hu: 15% 21% 36%  2%  4%  9%  8%  2%  4%
[libx264 @ 0x5645e4e64c60] i4 v,h,dc,ddl,ddr,vr,hd,vl,hu: 16% 18% 14%  3% 11% 16% 14%  2%  5%
[libx264 @ 0x5645e4e64c60] i8c dc,h,v,p: 50% 23% 21%  6%
[libx264 @ 0x5645e4e64c60] Weighted P-Frames: Y:0.0% UV:0.0%
[libx264 @ 0x5645e4e64c60] ref P L0: 60.2% 20.1% 15.6%  4.1%
[libx264 @ 0x5645e4e64c60] ref B L0: 90.2%  8.3%  1.5%
[libx264 @ 0x5645e4e64c60] ref B L1: 96.1%  3.9%
[libx264 @ 0x5645e4e64c60] PSNR Mean Y:44.207 U:48.189 V:50.890 Avg:45.341 Global:45.241 kb/s:564.45
